# xmcd CD database file
#
# Track frame offsets:
#	150
#	21997
#	47250
#	69112
#
# Disc length: 1255 seconds
#
# Revision: 0
# Processed by: cddbd v1.5.1PL0 Copyright (c) Steve Scherf et al.
# Submitted via: CDex 1.51
#
DISCID=2504e504
DTITLE=西脇唯 - 思いをはせることだけは自由
DYEAR=1995
DGENRE=JPop
TTITLE0=思いをはせることだけは自由
TTITLE1=最後のバレンタイン
TTITLE2=思いをはせることだけは自由(Original Karaoke)
TTITLE3=最後のバレンタイン(Original Karaoke)
EXTD=YEAR: 1995
EXTT0=
EXTT1=
EXTT2=
EXTT3=
PLAYORDER=
